# xmcd
#
# Track frame offsets:
#	150
#	16984
#	29917
#	44097
#	58980
#	75835
#	90003
#	102993
#	117195
#	131682
#	144795
#	158356
#	170194
#	181093
#	190970
#	203880
#
# Disc length: 2916 seconds
#
# Revision: 1
# Processed by: cddbd v1.5.2PL0 Copyright (c) Steve Scherf et al.
# Submitted via: EZCDAudioConverter 8.2.1.1
#
DISCID=d00b6210
DTITLE=Ben Steneker and Friends - De Jaren 90 Hits
DYEAR=1995
DGENRE=Pop/Nederpop/Country
TTITLE0=Part Of Me - (1995)
TTITLE1=She's Gone - (1995)
TTITLE2=Cajun Baby - (1995)
TTITLE3=Warm And Sweet Love - (1995)
TTITLE4=Colorado - (1995)
TTITLE5=One Day - (1995)
TTITLE6=Blue Magic - (1995)
TTITLE7=The Hand That Rocks The Cradle - (1995)
TTITLE8=Wild Rover - (1995)
TTITLE9=Country Pride - (1995)
TTITLE10=Rose Of My Heart - (1995)
TTITLE11=Merry Go Round - (1995)
TTITLE12=What I Really Need - (1995)
TTITLE13=Lonely, Heartbroken And Blue - (1995)
TTITLE14=Dog Gone Baby's Back - (1995)
TTITLE15=Drink, Lisa Drink - (1995)
EXTD=
EXTT0=
EXTT1=
EXTT2=
EXTT3=
EXTT4=
EXTT5=
EXTT6=
EXTT7=
EXTT8=
EXTT9=
EXTT10=
EXTT11=
EXTT12=
EXTT13=
EXTT14=
EXTT15=
PLAYORDER=
